<svg width="76" height="50" viewBox="0 0 76 50" fill="none" xmlns="http://www.w3.org/2000/svg">
<path d="M37 0.435202V0.918761C34.2322 0.918761 31.5126 1.66022 28.8414 3.14313C26.2023 4.59381 23.8207 6.46357 21.6966 8.75242L7.5 22.8088C28.8414 25 49.0003 22 76 25C49.0003 28 28.8414 25 7.5 27.2062L21.584 41.128C23.696 43.4 26.064 45.256 28.688 46.696C31.344 48.168 34.048 48.904 36.8 48.904V49.384C35.584 49.672 34.368 49.816 33.152 49.816C27.904 49.816 22.816 47.192 17.888 41.944C17.888 41.944 0 27 0 25C0 23 17.9793 7.93037 17.9793 7.93037C22.9356 2.64345 28.0529 0 33.331 0C34.554 0 35.777 0.145067 37 0.435202Z" fill="#FFF8CB"/>
</svg>
